HIERARCHY
ROOT hips
{
  OFFSET 0 10.680822821525009 1.3929502295107734
  CHANNELS 6 Xposition Yposition Zposition Yrotation Xrotation Zrotation
  JOINT spine
  {
    OFFSET -7.042017322922631e-31 0.6058489940359625 0
    CHANNELS 3 Yrotation Xrotation Zrotation
    JOINT chest
    {
      OFFSET 0 1.2699794144455032 0
      CHANNELS 3 Yrotation Xrotation Zrotation
      JOINT upperChest
      {
        OFFSET 0 1.217799211677689 0
        CHANNELS 3 Yrotation Xrotation Zrotation
        JOINT neck
        {
          OFFSET 0 1.5248826104153006 0
          CHANNELS 3 Yrotation Xrotation Zrotation
          JOINT head
          {
            OFFSET 0 0.8197772727844447 0
            CHANNELS 3 Yrotation Xrotation Zrotation
            JOINT leftEye
            {
              OFFSET 0.2793952361220866 0.6769952096623495 0.1830357412467788
              CHANNELS 3 Yrotation Xrotation Zrotation
              End Site
              {
                OFFSET 0.2793952361220866 0.6769952096623495 0.1830357412467788
              }
            }
            JOINT rightEye
            {
              OFFSET -0.27939522230689573 0.676995205357064 0.18303631459760622
              CHANNELS 3 Yrotation Xrotation Zrotation
              End Site
              {
                OFFSET -0.27939522230689573 0.676995205357064 0.18303631459760622
              }
            }
          }
        }
        JOINT leftShoulder
        {
          OFFSET 0.41486978509200423 1.1670505408695453 0
          CHANNELS 3 Yrotation Xrotation Zrotation
          JOINT leftUpperArm
          {
            OFFSET 0.9737926108153417 0 0
            CHANNELS 3 Yrotation Xrotation Zrotation
            JOINT leftLowerArm
            {
              OFFSET 2.5269332222665284 0 0
              CHANNELS 3 Yrotation Xrotation Zrotation
              JOINT leftHand
              {
                OFFSET 2.4263782738425914 0 0
                CHANNELS 3 Yrotation Xrotation Zrotation
                JOINT leftIndexProximal
                {
                  OFFSET 0.724320348022514 0.08170607082582437 0.20360061616140124
                  CHANNELS 3 Yrotation Xrotation Zrotation
                  JOINT leftIndexIntermediate
                  {
                    OFFSET 0.36548960630744587 -0.010566596513783999 -0.01414783573280308
                    CHANNELS 3 Yrotation Xrotation Zrotation
                    JOINT leftIndexDistal
                    {
                      OFFSET 0.22502819650693362 -0.007863819831430696 -0.007567681939621526
                      CHANNELS 3 Yrotation Xrotation Zrotation
                      End Site
                      {
                        OFFSET 0.22502819650693362 -0.007863819831430696 -0.007567681939621526
                      }
                    }
                  }
                }
                JOINT leftLittleProximal
                {
                  OFFSET 0.6720322998298205 0.08170601055037707 -0.3230036039466837
                  CHANNELS 3 Yrotation Xrotation Zrotation
                  JOINT leftLittleIntermediate
                  {
                    OFFSET 0.34583592281688713 5.476543019078406e-8 1.3869203337180114e-7
                    CHANNELS 3 Yrotation Xrotation Zrotation
                    JOINT leftLittleDistal
                    {
                      OFFSET 0.19925728062053938 0.003098047439490381 0.0038303983709246925
                      CHANNELS 3 Yrotation Xrotation Zrotation
                      End Site
                      {
                        OFFSET 0.19925728062053938 0.003098047439490381 0.0038303983709246925
                      }
                    }
                  }
                }
                JOINT leftMiddleProximal
                {
                  OFFSET 0.7300436596551069 0.0817073395107144 0.022661722987926763
                  CHANNELS 3 Yrotation Xrotation Zrotation
                  JOINT leftMiddleIntermediate
                  {
                    OFFSET 0.40758254347686607 -0.0000012383587111308714 2.408460318820138e-7
                    CHANNELS 3 Yrotation Xrotation Zrotation
                    JOINT leftMiddleDistal
                    {
                      OFFSET 0.2514490105498507 0.0000013869132886590307 9.738618134136345e-8
                      CHANNELS 3 Yrotation Xrotation Zrotation
                      End Site
                      {
                        OFFSET 0.2514490105498507 0.0000013869132886590307 9.738618134136345e-8
                      }
                    }
                  }
                }
                JOINT leftRingProximal
                {
                  OFFSET 0.7217261161191838 0.08170601902187746 -0.15043395722184966
                  CHANNELS 3 Yrotation Xrotation Zrotation
                  JOINT leftRingIntermediate
                  {
                    OFFSET 0.37808807487521556 0.0000013754022405443322 2.2046919317952884e-7
                    CHANNELS 3 Yrotation Xrotation Zrotation
                    JOINT leftRingDistal
                    {
                      OFFSET 0.21812105442344254 -0.002713483731960231 -0.004991354517454624
                      CHANNELS 3 Yrotation Xrotation Zrotation
                      End Site
                      {
                        OFFSET 0.21812105442344254 -0.002713483731960231 -0.004991354517454624
                      }
                    }
                  }
                }
                JOINT leftThumbProximal
                {
                  OFFSET 0.10793587079521427 -0.1652791240518252 -0.07775251827190094
                  CHANNELS 3 Yrotation Xrotation Zrotation
                  JOINT leftThumbIntermediate
                  {
                    OFFSET 0.40355819082296684 -0.017484006740276614 0.3177776014416309
                    CHANNELS 3 Yrotation Xrotation Zrotation
                    JOINT leftThumbDistal
                    {
                      OFFSET 0.2318764658022603 -0.018510186824293617 0.21396001800186287
                      CHANNELS 3 Yrotation Xrotation Zrotation
                      End Site
                      {
                        OFFSET 0.2318764658022603 -0.018510186824293617 0.21396001800186287
                      }
                    }
                  }
                }
              }
            }
          }
        }
        JOINT rightShoulder
        {
          OFFSET -0.4148697850920044 1.1670505408695453 0
          CHANNELS 3 Yrotation Xrotation Zrotation
          JOINT rightUpperArm
          {
            OFFSET -0.9737926108153414 0 0
            CHANNELS 3 Yrotation Xrotation Zrotation
            JOINT rightLowerArm
            {
              OFFSET -2.5269332222665293 0 0
              CHANNELS 3 Yrotation Xrotation Zrotation
              JOINT rightHand
              {
                OFFSET -2.42637827384259 0 0
                CHANNELS 3 Yrotation Xrotation Zrotation
                JOINT rightIndexProximal
                {
                  OFFSET -0.724320348022514 0.08170607082582437 0.20360061616140124
                  CHANNELS 3 Yrotation Xrotation Zrotation
                  JOINT rightIndexIntermediate
                  {
                    OFFSET -0.36548960630744587 -0.010566596513783999 -0.01414783573280308
                    CHANNELS 3 Yrotation Xrotation Zrotation
                    JOINT rightIndexDistal
                    {
                      OFFSET -0.22502819650693362 -0.007863819831430696 -0.007567681939621526
                      CHANNELS 3 Yrotation Xrotation Zrotation
                      End Site
                      {
                        OFFSET -0.22502819650693362 -0.007863819831430696 -0.007567681939621526
                      }
                    }
                  }
                }
                JOINT rightLittleProximal
                {
                  OFFSET -0.6720322998298205 0.08170601055037707 -0.3230036039466837
                  CHANNELS 3 Yrotation Xrotation Zrotation
                  JOINT rightLittleIntermediate
                  {
                    OFFSET -0.34583592281688713 5.476543019078406e-8 1.3869203337180114e-7
                    CHANNELS 3 Yrotation Xrotation Zrotation
                    JOINT rightLittleDistal
                    {
                      OFFSET -0.19925728062053938 0.003098047439490381 0.0038303983709246925
                      CHANNELS 3 Yrotation Xrotation Zrotation
                      End Site
                      {
                        OFFSET -0.19925728062053938 0.003098047439490381 0.0038303983709246925
                      }
                    }
                  }
                }
                JOINT rightMiddleProximal
                {
                  OFFSET -0.7300436596551069 0.0817073395107144 0.022661722987926763
                  CHANNELS 3 Yrotation Xrotation Zrotation
                  JOINT rightMiddleIntermediate
                  {
                    OFFSET -0.40758254347686607 -0.0000012383587111308714 2.408460318820138e-7
                    CHANNELS 3 Yrotation Xrotation Zrotation
                    JOINT rightMiddleDistal
                    {
                      OFFSET -0.2514490105498507 0.0000013869132886590307 9.738618134136345e-8
                      CHANNELS 3 Yrotation Xrotation Zrotation
                      End Site
                      {
                        OFFSET -0.2514490105498507 0.0000013869132886590307 9.738618134136345e-8
                      }
                    }
                  }
                }
                JOINT rightRingProximal
                {
                  OFFSET -0.7217261161191838 0.08170601902187746 -0.15043395722184966
                  CHANNELS 3 Yrotation Xrotation Zrotation
                  JOINT rightRingIntermediate
                  {
                    OFFSET -0.37808807487521556 0.0000013754022405443322 2.2046919317952884e-7
                    CHANNELS 3 Yrotation Xrotation Zrotation
                    JOINT rightRingDistal
                    {
                      OFFSET -0.21812105442344254 -0.002713483731960231 -0.004991354517454624
                      CHANNELS 3 Yrotation Xrotation Zrotation
                      End Site
                      {
                        OFFSET -0.21812105442344254 -0.002713483731960231 -0.004991354517454624
                      }
                    }
                  }
                }
                JOINT rightThumbProximal
                {
                  OFFSET -0.10793587079521427 -0.1652791240518252 -0.07775251827190094
                  CHANNELS 3 Yrotation Xrotation Zrotation
                  JOINT rightThumbIntermediate
                  {
                    OFFSET -0.40355819082296684 -0.017484006740276614 0.3177776014416309
                    CHANNELS 3 Yrotation Xrotation Zrotation
                    JOINT rightThumbDistal
                    {
                      OFFSET -0.2318764658022603 -0.018510186824293617 0.21396001800186287
                      CHANNELS 3 Yrotation Xrotation Zrotation
                      End Site
                      {
                        OFFSET -0.2318764658022603 -0.018510186824293617 0.21396001800186287
                      }
                    }
                  }
                }
              }
            }
          }
        }
      }
    }
  }
  JOINT leftUpperLeg
  {
    OFFSET 0.8486251390888677 -0.4421577294694363 0
    CHANNELS 3 Yrotation Xrotation Zrotation
    JOINT leftLowerLeg
    {
      OFFSET 0 -4.10147812638609 0
      CHANNELS 3 Yrotation Xrotation Zrotation
      JOINT leftFoot
      {
        OFFSET -0.0002543926476658853 -4.77292286812444 0.007402811231737388
        CHANNELS 3 Yrotation Xrotation Zrotation
        JOINT leftToes
        {
          OFFSET 0 -0.7027875951174846 1.2062924140498823
          CHANNELS 3 Yrotation Xrotation Zrotation
          End Site
          {
            OFFSET 0 -0.7027875951174846 1.2062924140498823
          }
        }
      }
    }
  }
  JOINT rightUpperLeg
  {
    OFFSET -0.8486251390888677 -0.4421577294694363 0
    CHANNELS 3 Yrotation Xrotation Zrotation
    JOINT rightLowerLeg
    {
      OFFSET 0 -4.10147812638609 0
      CHANNELS 3 Yrotation Xrotation Zrotation
      JOINT rightFoot
      {
        OFFSET 0.0002543926476658853 -4.77292286812444 0.007402811231737388
        CHANNELS 3 Yrotation Xrotation Zrotation
        JOINT rightToes
        {
          OFFSET 0 -0.7027875951174846 1.2062924140498823
          CHANNELS 3 Yrotation Xrotation Zrotation
          End Site
          {
            OFFSET 0 -0.7027875951174846 1.2062924140498823
          }
        }
      }
    }
  }
}
MOTION
Frames: 4
Frame Time: 0.03333333333333333
-0.030777953565120697 -1.0136627873453214 0.15583309531211853 -13.26779390256305 -8.338841649635713 3.6436485435726675 1.9965554406442596 -0.754983467711872 -4.022941549460697 0.06109959170558622 17.479579155752404 -1.8997567112265001 0 0 0 1.691230051570224 -1.6702137347871675 0.4623665805702611 11.334681405391603 -17.70354240486701 -8.297455362208272 0 0 0 0 0 0 -4.965869459889267 0.9373935009392982 14.909937000588842 -67.15570340771518 48.09600849154329 -101.40898368452602 -107.83866180547706 -6.75945911400764 11.273069766810782 -4.606449956817853 3.981992327953229 52.15356937489443 -0.2080803206587391 0.003501733435724386 1.9342515192762975 1.4921920553337238 0.18327826035656536 -14.005982853855867 1.4922153128943154 0.18328630454629602 -14.005978711877912 4.087275217885908 0.0013995520974716563 0.210381263594053 -2.342759885794314 0.24218898390239063 -16.653731171816208 1.719758772571508 0.24470091536584485 -16.19602983803679 -0.13669034638952618 0.0015104150015107691 1.2707480551866819 1.5519634241843163 0.19852446117317898 -14.578919599716453 1.5782667259759275 0.20542260823223346 -14.831658524856149 -0.04524715252435845 0.0001662276288840401 0.42092505928476587 1.638702108060937 0.2217457799203699 -15.413156832528903 1.6656897378353142 0.22926535617507238 -15.673497808841985 17.554539587504507 -0.9288332849372656 11.291729652584854 7.976345396593735 3.908119539013955 1.1905958949463118 1.607737829948489 -0.5796826548637533 2.5018930031826305 5.547309950705374 0.7622128427371088 -1.056567852594448 8.70982452093103 70.13246263632642 58.78291788455577 124.82735266753251 -5.511024776680824 -13.320269020596948 -2.8331983461803305 18.915823947353033 -5.712111174361719 -0.2313378851662683 0.004280638055237598 2.127011095391338 -0.6709756444926886 0.03621282162188442 6.180317338483588 -0.6709878632926851 0.03623133784153769 6.180286413601857 -0.6725846708603912 0.03638750841404139 6.194815791056042 -1.0919691435409367 0.09639802038124559 10.089997311899502 -1.091972344615272 0.09639271096886876 10.090012199900256 -0.36491334344636395 0.010693659222441086 3.356392902691508 -0.8015467378535716 0.05175783654321232 7.388950182322463 -0.8048471392706542 0.052184950325674107 7.419366888797443 -0.5335261112902919 0.02286995022557636 4.910651719586584 -0.9651211697303188 0.07517871981713833 8.907908109663436 -0.9666003132634545 0.07542185208320008 8.921619633458224 -23.316371053858855 0.38037738970976465 -9.146234377934608 -8.664334838647267 4.592907340545109 -0.8121201437434576 0.11026223976275042 -1.2742538859337174 -2.0989101768052976 1.9529281630661743 -9.41214360567167 0.6987771119334697 12.98377185849038 44.932905832398454 14.013870756945373 11.365591394098342 -24.56409674020504 -17.499182303795443 0.000002966307022121642 -0.000022796620081614117 -4.6523963080775585e-7 -1.7175620082207959 -12.727413137418 -8.862800972285408 -7.443998659540706 47.90198691450261 -12.743778311522393 -3.876134638863292 -26.375812976352762 15.138434051762692 0.000006036405944688281 -0.5703040126917387 -7.797114618076337e-8
-0.0218349676579237 -1.0800881108316496 0.1348622441291809 -13.160410099782265 -9.394413244993693 3.187884676085582 2.1776703364280268 0.24975098013624672 -3.732157106181613 0.22964864384693387 18.07219662250353 -1.281781604111073 0 0 0 1.678649741703757 -2.0228065403558353 0.3209021660768727 11.18169675414875 -18.27313867643536 -8.347380106909949 0 0 0 0 0 0 -4.7961138271189085 0.9109709985195653 14.74983597209607 -66.55653903474098 47.708684742652444 -99.81620863052945 -107.8638661728426 -6.758034080925077 11.276373121845724 -5.132078325132684 4.909128094317192 52.21710697536731 -0.20412948610861723 0.003381337594290812 1.8975501450874095 1.4936422393364852 0.18363891486984923 -14.019628871786274 1.493619319516405 0.18366358105080888 -14.019599881705075 4.091274532471664 0.004048606723462441 0.17306872377331278 -2.341531933550483 0.24255995187089385 -16.665890821785695 1.7210559923321045 0.24504741722866774 -16.20817389219861 -0.1327345197589328 0.001439198690079552 1.234109354018639 1.5533609246638007 0.19888206107928832 -14.592610174168724 1.5796181276239472 0.20577676649303622 -14.844575296244045 -0.041295223030350575 0.0001477704798515452 0.3839751976502813 1.6400744234063245 0.22211115776122176 -15.426259194883439 1.666989841312412 0.22959451523507307 -15.685841917895498 17.554539587504507 -0.9288332849372656 11.291729652584854 7.976345396593735 3.908119539013955 1.1905958949463118 1.607737829948489 -0.5796826548637533 2.5018930031826305 5.739635106280104 0.7667444896546108 -0.8559080661171682 1.449718404173152 71.61375838218119 53.1303253922687 127.47284019335751 -5.2638392410441694 -13.60254655532961 -2.803549588869036 18.893946655877826 -4.572971167585134 -0.23820750897942913 0.004549246167445603 2.190649387600921 -0.6744472774111124 0.036603599901766266 6.212063645870029 -0.6744338847620069 0.03658552724421663 6.212079347941456 -0.6776564595762029 0.03693560786176724 6.241928775525291 -1.0945013575602935 0.09685638408930052 10.113557634241085 -1.0945120277989582 0.09686274070998427 10.113550310481928 -0.3712168122929498 0.011056988273739675 3.414553433370604 -0.8048017336462692 0.05218716813704232 7.418937366592191 -0.8079693328680758 0.052564422854497195 7.4483061599819775 -0.5391514858640948 0.02334603579378867 4.962481071568158 -0.968014045617888 0.07565333833432282 8.934624800777545 -0.9693864825484765 0.07584205582559847 8.947456728996345 -23.31636342957909 0.38040535141291687 -9.146239435557925 -8.664334838647267 4.592907340545109 -0.8121201437434576 0.11026223976275042 -1.2742538859337174 -2.0989101768052976 2.199234219699594 -9.506846168159422 1.3288020517769885 13.917292533051997 46.92949096123864 15.135121621836875 10.850917883695525 -25.581998956051077 -17.830836481670264 -0.000001747545744621773 -0.000007636975693177545 -0.000003819727499581403 -1.637320442448794 -12.474615638216378 -8.33379894709782 -8.1745260046071 49.48824806276631 -13.619223527595647 -4.139074190899309 -27.124572816256844 15.534255802855993 -2.3385800282460015e-9 -0.583184374333794 -8.537465210762828e-7
0.0077292113564908504 -1.190034361747177 0.0849679708480835 -13.17101922907547 -12.059495160524957 2.290571022734341 2.3073714241040424 2.775208403755394 -3.3108387248056146 0.5278991813870694 19.428656274418078 0.025036404544097498 0 0 0 1.5737958359097224 -2.732073763416037 0.270752072518852 10.674276353681234 -19.59904135784818 -8.28511992441575 0 0 0 0 0 0 -4.48319738816856 0.865459713599365 14.659800539664351 -65.23005695950985 46.77566436633984 -96.22244177121944 -107.72307620302084 -6.76576627920932 11.25801180576813 -6.5815544569192985 6.694733735760291 52.404147819757405 -0.20037533840926586 0.0032338394421401085 1.8623996820836255 1.495046032703714 0.18400223744681193 -14.033230990345345 1.4950418719525114 0.18399475354860345 -14.03323596012886 4.0956978245768685 0.007000924740127428 0.13156333766662917 -2.3399128572837835 0.24304564671499582 -16.681164227125446 1.7226131698082663 0.2454886888447259 -16.22348021695704 -0.1287897389460054 0.0013399194683817442 1.1970717924311591 1.5549209820650636 0.19926823590265968 -14.60718377436183 1.5810486873233525 0.2061461460435014 -14.858436467675341 -0.037082441358852934 0.00010569846973916322 0.3445832181040496 1.641631595349962 0.22255900543118903 -15.441520868629272 1.6684743753724554 0.2300509943233683 -15.700351404599468 17.554539587504507 -0.9288332849372656 11.291729652584854 7.976345396593735 3.908119539013955 1.1905958949463118 1.607737829948489 -0.5796826548637533 2.5018930031826305 6.0265905632831736 0.7736965961996057 -0.4822437855263613 -17.123502881149967 72.90903992132552 38.19403368811047 132.43920995815574 -4.765287636742642 -14.100550781165298 -2.619244480151833 19.55614192779055 -1.1281245755635363 -0.2899298577561456 0.006756592063086359 2.6663067611833045 -0.7001506307125811 0.039420533286296855 6.449929284635884 -0.7001753883060431 0.03945788922722362 6.449910236866163 -0.6777565575538798 0.03697303717280193 6.242955240108821 -1.0945583366338842 0.09685995260143657 10.114078971574992 -1.0945498004432221 0.09686357447450217 10.114051716408433 -0.40675386043153483 0.013294340517514942 3.7420099118362873 -0.8230290953688871 0.05457472049474678 7.587956704471826 -0.8255376575752837 0.05490758898205651 7.61136725114133 -0.554968764110931 0.024764380728877836 5.1085920201588495 -0.9761253636870167 0.07689457290338882 9.010040275067619 -0.9771960256123724 0.07708439096870057 9.020180706804581 -23.31635737343172 0.3804039640001629 -9.14624112143233 -8.664334838647267 4.592907340545109 -0.8121201437434576 0.11026223976275042 -1.2742538859337174 -2.0989101768052976 3.907510988633721 -8.825588580347274 2.657196707858361 15.47884684566433 50.0296655407862 17.547841245396462 9.059979858956327 -27.32960146046473 -18.03307174502866 0.000004630143824415282 -0.00003795626447005229 0.000001220954791563708 -1.892654636341234 -11.164103221861268 -7.022258540287338 -9.30158194707666 51.80189509397441 -15.775657710772492 -4.697274134865169 -28.098557630936046 16.518526230099226 -2.7439601991966854e-7 -0.8195885386814667 0.000002564868256160743
0.05040906369686127 -1.2817206105264738 0.016267091035842896 -13.99143308767733 -15.447499085310687 1.5070880270820062 1.967517421758125 6.686690625425117 -3.5280947991287666 0.7812913699708224 21.18404844621463 1.6626916541686154 0 0 0 1.4090273133870659 -3.5736620523481433 0.6727345367393756 10.381945998846486 -21.739960085236405 -8.23431227240542 0 0 0 0 0 0 -4.363823886187073 0.8406469948683377 15.139996317165767 -63.474717559052124 45.41962001002562 -91.63859135770923 -107.06933650519092 -6.801094291498374 11.172456464567839 -8.682357233956091 7.1848424233131984 52.92901519584353 -0.2093703498521558 0.0035596295443390846 1.9461324257192851 1.490631558037008 0.18289160564249232 -13.991077838848744 1.4906223830294578 0.18290882794551216 -13.991097716082498 4.096479657639649 0.007532919107515547 0.12435056528125592 -2.339590692373066 0.24318417273613516 -16.684383967573936 1.7229250738787085 0.24560920543772338 -16.22669876956706 -0.13475829923846366 0.0014629254057282734 1.252377362698403 1.551893134148583 0.1985076524036276 -14.578252803603487 1.5781318926725523 0.20540489231522013 -14.83056507809006 -0.03931067338938219 0.00012673874783239355 0.3653218925295493 1.6404976891080774 0.222232047682294 -15.430575091304457 1.6673864385649846 0.229730373057945 -15.689742312027809 17.554539587504507 -0.9288332849372656 11.291729652584854 7.976345396593735 3.908119539013955 1.1905958949463118 1.607737829948489 -0.5796826548637533 2.5018930031826305 6.097619983677209 0.7839532328858557 -0.07920885025359271 -32.056546216259484 69.27516911965768 27.372745532018133 134.9894097943406 -4.492736976089845 -14.339103364182685 -1.7327076573546647 22.177887225421994 4.955823781077337 -0.5861904158986263 0.02765049614118737 5.3966795487093595 -0.8475074994606226 0.0578748373713905 7.815049794460247 -0.8475141154859234 0.0578972222606024 7.815028183980367 -0.6892256221631008 0.038234944909248746 6.348761837611136 -1.1001979380509175 0.0978819544823724 10.166959546457889 -1.1002294807697657 0.09786287127951561 10.166974435546798 -0.6138452979552035 0.03030067824687616 5.652132347178953 -0.929207031139174 0.0696567075635021 8.573847808073406 -0.9279905506061094 0.06947011119352225 8.562494966569274 -0.6532078707252923 0.034329449962160044 6.0158937608677885 -1.0264104903067202 0.08508956079207822 9.478384408114465 -1.0257221681692574 0.0849838061352793 9.471984568454308 -23.316354237167122 0.3804031902507425 -9.146256837160212 -8.664334838647267 4.592907340545109 -0.8121201437434576 0.11026223976275042 -1.2742538859337174 -2.0989101768052976 6.402807546726892 -7.146431244536496 4.143050540292328 16.377263743650616 52.496194660119464 19.511451844828496 7.663576548095284 -28.748815960042787 -17.985798027958467 -0.0000033626572634173942 -0.000019579150203184444 -0.0000010238676750612663 -2.7753473454499393 -9.22208167649955 -5.757050845132535 -8.733783228406953 53.69857014798453 -17.187656892492708 -5.073599370330572 -28.651982438968968 17.15990345422095 0.00000925375654740717 -1.507195081611081 -0.000004388790676036059
